<svg enable-background="new 0 0 400 400" viewBox="0 0 400 400"
    xmlns="http://www.w3.org/2000/svg" style="background-color:#bbb">
    <g fill="#010102">
        <path d="m129.5 363.6c-9.4 3.8-10.3 1.9-12.3-8.2-1-5-.2-10.4-.1-15.6.2-27.9.4-55.9.5-83.8 0-2-1.2-4.3-2.5-5.9-21.9-26.1-35.2-55.4-33-90.2 1.1-18 6-35.1 15-50.9 2.2-3.9 5.8-6.9 8.6-10.5 9.5-11.8 14-24.8 11.8-40.3-.8-5.7.6-11.8 1.9-17.6.4-1.8 3.4-4.3 5.2-4.4 3.6-.1 5.7 2.8 6.2 6.4.5 4.3 1.2 8.7.9 13-.8 9.5-1.5 19.1-3.4 28.4-1.8 8.8-6.4 16.5-12.3 23.5-16 19.2-22.2 41.2-19.4 66.1 2.1 19.2 7.8 37 17.8 53.4.4.7.9 1.3 2.1 3 .3-2.8.5-4.5.6-6.1.4-20.1.7-40.2 1.2-60.4.2-11.2.8-22.4.9-33.6 0-3.9 2.3-5.1 5.3-5.9 3.1-.8 5 1 5.7 3.9.8 3.9 1.9 7.9 1.9 11.9-.1 39.9-.5 79.9-.6 119.8 0 4.7.9 9.5 1.5 15.2 7.4-5.4 9.9-11.8 10.4-19.1s1.1-14.6 1.2-21.8c.4-32.1.6-64.3.9-96.4.1-7.9 2.5-11.6 9.7-14.1 1.1 5 3 9.9 3.1 14.9.5 14.9.2 29.9.4 44.8.1 13.8.4 27.6.6 41.4 0 .6.1 1.1.2 1.7.5.2.9.3 1.4.5 3.7-7.2 7.9-14.3 11.1-21.7 6.5-14.8 10.8-30.1 10.8-46.5 0-15.3-5.5-28.8-12.1-42-4-8-7.9-16-11.6-24.1-1.5-3.3-3.3-7-3.2-10.5.3-11.3 1.5-22.5 2.4-33.8.1-1.1.7-2.2 1.3-3.1 1.9-3.1 4.3-6.8 8.1-5.5 1.8.6 3.3 5 3.3 7.7.1 9.9-.5 19.8-.7 29.6-.2 7.4 1.2 14.4 4.8 21 4.4 7.9 8.4 16.1 12.4 24.2 10.6 21.8 12.3 44.4 3.8 66.9-7 18.3-16.1 35.7-24.4 53.5-1.1 2.3-3.1 4.2-4.2 6.5-1.7 3.4-3.4 6.9-4.3 10.6-1.4 6-3.6 11.3-8.1 15.7-5.5 5.3-10.9 10.7-16.1 16.3-1.5 1.6-2.5 4.2-2.6 6.3-.4 13.8-.3 27.6-.6 41.4-.6 8.2-1.1 16.3-1.5 24.4z"/>
        <path d="m246.6 164.7c-8.2 0-15.7.2-23.1-.1-3.6-.2-7.4-.7-10.7-2.2-1.7-.8-2.7-3.8-3.1-6-.1-.9 2.2-2.8 3.7-3.2 4.3-1.2 8.7-2.6 13.1-2.7 15.7-.6 31.5-1.3 47.2-.9 8.7.2 17.3 2.2 25.9 3.5 6.6 1 10.3 5.3 12.1 11.3 3.3 10.4 3.1 21.2-1.5 30.8-2.1 4.4-7.8 7.4-12.5 10-9.9 5.5-21.2 5.3-32.1 6.8-11.5 1.5-23.2 2.6-34.5 5.2-10 2.3-13.6 8.4-12.5 18.4.2 2.2 1.9 4.9 3.8 6 8.8 5.4 18.7 6.8 28.9 7.3 8.2.4 16.5 1.3 24.7 2 15.7 1.2 24.8 10.8 29 24.8 3.8 12.7 6.1 25.8 8.7 38.8 2.5 12.4 4.4 24.8 6.7 37.3 1.3 7.3-.8 10.7-8.9 12.3-2.4-7.8-5.5-15.6-7.3-23.7-3.3-14.8-5.7-29.9-8.9-44.8-1.7-7.7-4.2-15.3-6.8-22.8-.6-1.7-2.5-3.3-4.2-4.2-11.1-6.2-23.4-7.1-35.7-8-8.4-.6-16.7-1.7-25-3.1-3.1-.5-6-2.3-8.9-3.8-4.3-2.3-6.8-5.2-7.7-10.7-1.4-9.5-1.7-18.7 1.6-27.7.8-2.1 2.3-4.2 4.1-5.5 8.3-5.9 17.9-8.2 27.7-9.7 3.8-.6 4.7-2.1 4.8-5.7.4-9.7 1-19.5 1.4-29.7zm10.6 33.4c13.5.4 26-1.3 37.8-7.1 1.5-.7 3.5-2.2 3.7-3.5.7-5.1 1.1-10.3.9-15.4-.2-4.5-3.2-7.1-7.8-8.1-12.4-2.7-24.7-1.2-37.3.7.9 11.3 1.8 22.2 2.7 33.4z"/>
        <path d="m258.5 62.6c9.3 1 18.7 1.6 28 3 13 1.9 20.5 9.6 23.7 22.4 2.4 9.3.6 18-2.4 26.6-.5 1.4-1.8 2.7-3 3.7-10.4 8.6-22.1 13.7-35.7 14.7-13.1 1-25.7-.6-38.3-4.3-6.1-1.8-10.6-5.3-13.9-10.5-8.3-13.2-8.5-26.9-1.8-40.7 1-2.2 3.3-3.9 5.4-5.4 11.3-8 24.3-9.6 38-9.5zm1.1 58.8c6.6-.6 11.1-.8 15.6-1.5 15-2.2 20.5-7.9 22.2-22.7 1.1-9.8-2.4-14.9-12.3-17.7-16-4.6-32.1-3.9-48.1-.8-6.4 1.2-12.5 3.7-13.5 11.8-1.1 9.2 1.4 17.3 7.2 24.4.9 1.1 2.6 1.9 4.1 2.2 8.9 1.7 17.8 3.1 24.8 4.3z"/>
    </g>
</svg>